<svg viewBox="0 0 211.17 52.38" xmlns="http://www.w3.org/2000/svg"><path d="m68.7 39.34-32.7-32.67h28.45a4.26 4.26 0 0 1 4.25 4.25zm-28.7-31.01 27 27v-24.41a2.59 2.59 0 0 0 -2.59-2.59z" fill="#303030"/><path d="m64.45 52.38h-60.2a4.26 4.26 0 0 1 -4.25-4.25v-37.21a4.26 4.26 0 0 1 4.25-4.25h29.27l35.18 35.18v6.28a4.26 4.26 0 0 1 -4.25 4.25zm-60.2-44.05a2.59 2.59 0 0 0 -2.59 2.59v37.21a2.6 2.6 0 0 0 2.59 2.59h60.2a2.6 2.6 0 0 0 2.55-2.59v-5.59l-34.16-34.21z" fill="#303030"/><path d="m59.42 20a3.74 3.74 0 1 1 3.74-3.74 3.75 3.75 0 0 1 -3.74 3.74zm0-6.1a2.36 2.36 0 1 0 2.36 2.36 2.36 2.36 0 0 0 -2.36-2.39z" fill="#303030"/><path d="m35 31.05h-3.6a9.29 9.29 0 0 0 -9.28-9.28v-3.6a12.89 12.89 0 0 1 12.88 12.88z" fill="#f79420"/><path d="m23.69 44.62a14.82 14.82 0 1 1 14.82-14.82 14.84 14.84 0 0 1 -14.82 14.82zm0-26a11.22 11.22 0 1 0 11.21 11.18 11.23 11.23 0 0 0 -11.21-11.22z" fill="#303030"/><path d="m85.64 28.81v1.56c0 1.89.57 2.93 2 2.93s1.91-1.44 1.91-3.08c0-2.72-.59-3.56-3.3-5.7s-4.12-3.52-4.12-7.26c0-3.33 1-6.69 5.57-6.69s5.39 3.33 5.39 6.07v1.36h-3.87v-1.25c0-1.76-.3-2.83-1.59-2.83s-1.63 1.08-1.63 2.78.34 2.66 2.56 4.29c3.78 2.79 4.94 4.42 4.94 8.65 0 3.58-1.25 7-6 7s-5.82-3-5.82-6.31v-1.5z" fill="#303030"/><path d="m96.16 36.25v-25.25h4.51c1 3.57 4 16 4.3 17.39-.18-3.11-.19-6.67-.19-10.82v-6.57h3.6v25.25h-4.35c-.79-3-4.16-16.88-4.41-17.94.19 3.06.17 6.48.17 11v6.91z" fill="#303030"/><path d="m115.34 29.49-.88 6.76h-4l4.1-25.25h5.51l4.23 25.28h-4.08l-1-6.76zm3.43-3.59c-.58-4.29-1.13-8.36-1.42-11.22h-.14c-.11 2.08-.87 7.49-1.38 11.22z" fill="#303030"/><path d="m126.32 11h5.62c4 0 6.06 2 6.06 6.46v1.49c0 4.17-1.49 6.94-6.28 6.94h-1.5v10.36h-3.9zm3.9 11.7h1.07c2.42 0 2.84-1.42 2.84-3.88v-1.28c0-1.83-.33-3.35-2.5-3.35h-1.41z" fill="#303030"/><path d="m146.47 28.81v1.56c0 1.89.57 2.93 2.05 2.93s1.91-1.44 1.91-3.08c0-2.72-.58-3.56-3.3-5.7s-4.13-3.52-4.13-7.26c0-3.33 1-6.69 5.57-6.69s5.39 3.33 5.39 6.07v1.36h-3.87v-1.25c0-1.76-.29-2.83-1.59-2.83s-1.6 1.1-1.6 2.78.34 2.66 2.56 4.29c3.78 2.79 4.94 4.42 4.94 8.65 0 3.58-1.25 7-6 7s-5.82-3-5.82-6.31v-1.5z" fill="#ef9421"/><path d="m159.19 14.59h-4.06v-3.59h12v3.62h-4.08v21.63h-3.9z" fill="#ef9421"/><path d="m179.91 17.68v11.81c0 4.84-2 7.13-6.34 7.13-4.11 0-5.95-2.35-5.95-7.07v-11.9c0-4.84 2.43-7 6.2-7s6.09 2.17 6.09 7.03zm-8.33-.38v12.7c0 2.1.76 3.08 2.17 3.08s2.19-.92 2.19-3.14v-12.67c0-2-.61-3.11-2.2-3.11-1.4 0-2.16 1-2.16 3.14z" fill="#ef9421"/><path d="m193.76 28.69v1c0 2.89-.48 6.94-5.83 6.94-4.68 0-5.67-2.92-5.67-6.78v-12.76c0-3.9 1.77-6.49 5.74-6.49 4.74 0 5.65 3.15 5.65 6.65v1.13h-3.91v-1.59c0-1.68-.39-2.63-1.75-2.63s-1.76.92-1.76 2.65v13.36c0 1.65.33 2.93 1.81 2.93s1.78-1.11 1.78-3v-1.41z" fill="#ef9421"/><path d="m196.42 11h3.83v11.39c1-2.5 3.13-7.94 4.53-11.42h4.34l-4.61 9.83 4.88 15.45h-4.25l-3.3-11.38-1.63 3.4v8h-3.83z" fill="#ef9421"/><g fill="#303030"><path d="m83.7 42.16h-2.08v-.23h4.38v.23h-2v9.2h-.3z"/><path d="m88.42 41.53v4.19a1.67 1.67 0 0 1 1.71-1.43c.79 0 1.58.37 1.58 2.06v5h-.25v-4.9c0-1.29-.4-1.92-1.36-1.92-1.25 0-1.68 1.1-1.68 2.6v4.22h-.25v-9.82z"/><path d="m94.77 47.7c0 2.32.43 3.54 1.65 3.54 1.39 0 1.51-1.49 1.54-1.71h.25c0 .18-.18 1.94-1.79 1.94-1.81 0-1.9-2.18-1.9-3.68 0-2.23.66-3.5 1.9-3.5 1.4 0 1.84 1.12 1.84 3.09v.32zm3.23-.23c0-1.66-.25-2.94-1.59-2.94s-1.63 1.83-1.65 2.94z"/><path d="m105.19 41.93v6.81c0 1.33.31 2.51 1.81 2.51s1.83-1 1.83-2.51v-6.81h.25v6.82c0 1.68-.47 2.74-2.1 2.74s-2-1-2-2.71v-6.85z"/><path d="m112.22 51.36v-9.83h.25v9.83z"/><path d="m114.86 44.42h1v-2h.25v2h1.27v.22h-1.27v5.61c0 .52.09 1 .72 1a1.77 1.77 0 0 0 .52-.07v.23a1.48 1.48 0 0 1 -.54.08c-.59 0-1-.22-1-1.21v-5.64h-1z"/><path d="m119.85 44.42h.25v6.94h-.25zm0-2.71h.25v1.18h-.25z"/><path d="m123.3 46.11c0-.86 0-1.37 0-1.69h.25s0 .53 0 1.12a1.54 1.54 0 0 1 1.54-1.25 1.38 1.38 0 0 1 1.44 1.32 1.62 1.62 0 0 1 1.61-1.32c.7 0 1.52.28 1.52 1.88v5.19h-.25v-5.15c0-1-.32-1.68-1.28-1.68s-1.53.92-1.53 2.21v4.62h-.25v-5c0-1.15-.44-1.78-1.27-1.78-1.13 0-1.53 1.14-1.53 2.19v4.64h-.25z"/><path d="m135.73 50.17v1.19h-.23c0-.28 0-.68 0-1.12a1.55 1.55 0 0 1 -1.63 1.23 1.64 1.64 0 0 1 -1.61-1.86c0-1.11.55-2.08 2.26-2.08h1v-1.4c0-.54-.06-1.6-1.31-1.6-1.08 0-1.32.74-1.36 1.57h-.25c0-.85.26-1.81 1.62-1.81s1.55 1.06 1.55 1.81zm-.25-2.42h-1c-1.47 0-2 .75-2 1.85s.47 1.64 1.37 1.64c1.18 0 1.62-.84 1.62-2.61z"/><path d="m138 44.42h1v-2h.25v2h1.26v.22h-1.31v5.61c0 .52.08 1 .72 1a1.75 1.75 0 0 0 .51-.07v.23a1.42 1.42 0 0 1 -.54.08c-.58 0-.94-.22-.94-1.21v-5.64h-1z"/><path d="m142.7 47.7c0 2.32.43 3.54 1.65 3.54 1.39 0 1.51-1.49 1.54-1.71h.25c0 .18-.18 1.94-1.79 1.94-1.81 0-1.9-2.18-1.9-3.68 0-2.23.66-3.5 1.9-3.5 1.4 0 1.84 1.12 1.84 3.09v.32zm3.24-.23c0-1.66-.25-2.94-1.59-2.94s-1.63 1.83-1.65 2.94z"/><path d="m152.93 41.93h1.68a2.1 2.1 0 0 1 2.15 2.36c0 1.5-.64 2.57-2.33 2.57h-1.25v4.5h-.25zm.25 4.71h1.26c1.43 0 2.07-.82 2.07-2.33 0-1.13-.53-2.15-1.93-2.15h-1.4z"/><path d="m159.75 41.53v4.19a1.66 1.66 0 0 1 1.7-1.43c.8 0 1.59.37 1.59 2.06v5h-.25v-4.9c0-1.29-.41-1.92-1.36-1.92-1.25 0-1.68 1.1-1.68 2.6v4.22h-.25v-9.82z"/><path d="m169.71 47.88c0 2.73-.8 3.59-1.92 3.59s-1.95-.8-1.95-3.61.95-3.57 2-3.57c1.16 0 1.87.87 1.87 3.59zm-3.62 0c0 2.5.68 3.38 1.68 3.38 1.19 0 1.69-1.13 1.69-3.36 0-2.39-.56-3.35-1.7-3.35-.88-.02-1.67.7-1.67 3.31z"/><path d="m171.76 44.42h1v-2h.24v2h1.27v.22h-1.27v5.61c0 .52.09 1 .72 1a1.77 1.77 0 0 0 .52-.07v.23a1.48 1.48 0 0 1 -.54.08c-.59 0-.95-.22-.95-1.21v-5.64h-1z"/><path d="m180.11 47.88c0 2.73-.8 3.59-1.93 3.59s-1.94-.8-1.94-3.61.94-3.57 2-3.57c1.14 0 1.87.87 1.87 3.59zm-3.62 0c0 2.5.68 3.38 1.68 3.38 1.19 0 1.69-1.13 1.69-3.36 0-2.39-.57-3.35-1.7-3.35-.88-.02-1.67.7-1.67 3.31z"/><path d="m186.47 49.2c0 1.25.71 2.07 1.82 2.07s1.78-.84 1.78-2.16a2.66 2.66 0 0 0 -1.75-2.61c-1.22-.65-1.79-1.19-1.79-2.55 0-1.16.54-2.14 1.8-2.14s1.8.89 1.8 2.15h-.24c0-1.29-.58-1.93-1.57-1.93-1.15 0-1.54.92-1.54 1.9 0 1.21.4 1.68 1.62 2.34 1.41.75 1.92 1.45 1.92 2.84 0 1.22-.5 2.38-2 2.38s-2-1.22-2.06-2.29z"/><path d="m192.39 44.42h1v-2h.25v2h1.27v.22h-1.27v5.61c0 .52.09 1 .73 1a1.75 1.75 0 0 0 .51-.07v.23a1.48 1.48 0 0 1 -.54.08c-.58 0-.95-.22-.95-1.21v-5.64h-1z"/><path d="m200.75 47.88c0 2.73-.81 3.59-1.93 3.59s-1.95-.8-1.95-3.61.95-3.57 2-3.57c1.13 0 1.88.87 1.88 3.59zm-3.63 0c0 2.5.68 3.38 1.68 3.38 1.2 0 1.7-1.13 1.7-3.36 0-2.39-.57-3.35-1.71-3.35-.88-.02-1.67.7-1.67 3.31z"/><path d="m203.54 46.79c0-1.65 0-2.29 0-2.37h.24v1.53a2.06 2.06 0 0 1 1.81-1.66v.25c-1.14.16-1.79 1.12-1.79 2.78v4h-.25z"/><path d="m207.68 47.7c0 2.32.43 3.54 1.65 3.54 1.39 0 1.51-1.49 1.54-1.71h.25c0 .18-.18 1.94-1.79 1.94-1.81 0-1.9-2.18-1.9-3.68 0-2.23.66-3.5 1.9-3.5 1.4 0 1.84 1.12 1.84 3.09v.32zm3.24-.23c0-1.66-.25-2.94-1.59-2.94s-1.63 1.83-1.65 2.94z"/><path d="m22.9 4.85h-1.76v-3a2.19 2.19 0 0 0 -.77-.12h-10.8a2.13 2.13 0 0 0 -.76.12v3h-1.76v-3.25c0-.94 1-1.6 2.52-1.6h10.8c1.49 0 2.53.66 2.53 1.6z"/></g></svg>